<?xml version="1.0" encoding="UTF-8"?>
<svg xmlns="http://www.w3.org/2000/svg" xmlns:xlink="http://www.w3.org/1999/xlink" width="30px" height="30px" viewBox="0 0 30 30" version="1.1">
<g id="surface1">
<path style=" stroke:none;fill-rule:nonzero;fill:rgb(0%,0%,0%);fill-opacity:1;" d="M 1.367188 0.105469 C 0.746094 0.320312 0.1875 0.929688 0.0585938 1.539062 C 0.0117188 1.761719 0 5.523438 0.0117188 15.175781 L 0.03125 28.503906 L 0.1875 28.832031 C 0.394531 29.242188 0.757812 29.605469 1.171875 29.8125 L 1.496094 29.96875 L 22.179688 29.96875 L 22.511719 29.804688 C 22.933594 29.601562 23.273438 29.261719 23.480469 28.839844 L 23.644531 28.503906 L 23.660156 22.617188 L 23.671875 16.726562 L 26.625 13.769531 C 28.242188 12.140625 29.625 10.714844 29.695312 10.605469 C 30.199219 9.75 30.042969 8.648438 29.320312 7.96875 C 28.851562 7.523438 28.566406 7.410156 27.890625 7.410156 C 26.964844 7.410156 26.984375 7.398438 25.214844 9.15625 L 23.671875 10.6875 L 23.660156 6.085938 L 23.644531 1.492188 L 23.480469 1.160156 C 23.273438 0.738281 22.933594 0.398438 22.511719 0.191406 L 22.179688 0.0273438 L 11.925781 0.015625 C 2.203125 0.00390625 1.652344 0.00390625 1.367188 0.105469 Z M 6.855469 1.757812 L 6.855469 2.34375 L 2.683594 2.34375 L 2.34375 2.683594 L 2.34375 27.316406 L 2.515625 27.484375 L 2.683594 27.65625 L 9.738281 27.65625 L 9.910156 27.484375 C 10.097656 27.296875 10.132812 27.070312 10.007812 26.804688 C 9.863281 26.484375 9.875 26.484375 6.5625 26.484375 L 3.515625 26.484375 L 3.515625 3.515625 L 6.839844 3.515625 L 6.875 3.800781 C 6.945312 4.410156 7.425781 5.027344 8.003906 5.25 C 8.273438 5.355469 8.492188 5.359375 11.835938 5.359375 C 15.183594 5.359375 15.398438 5.355469 15.667969 5.25 C 16.25 5.027344 16.730469 4.410156 16.800781 3.800781 L 16.835938 3.515625 L 20.15625 3.515625 L 20.15625 14.203125 L 19.777344 14.589844 C 19.402344 14.964844 19.390625 14.988281 18.488281 17.007812 C 17.890625 18.355469 17.578125 19.113281 17.578125 19.246094 C 17.578125 19.511719 17.777344 19.738281 18.046875 19.78125 C 18.21875 19.808594 18.421875 19.734375 19.183594 19.398438 C 19.695312 19.171875 20.121094 18.984375 20.132812 18.984375 C 20.144531 18.984375 20.15625 20.671875 20.15625 22.734375 L 20.15625 26.484375 L 17.109375 26.484375 C 13.800781 26.484375 13.8125 26.484375 13.664062 26.804688 C 13.542969 27.070312 13.578125 27.296875 13.765625 27.484375 L 13.933594 27.65625 L 20.972656 27.65625 L 21.300781 27.375 L 21.328125 22.910156 L 21.359375 18.445312 L 21.933594 18.1875 L 22.5 17.933594 L 22.488281 23.101562 C 22.472656 27.929688 22.464844 28.289062 22.367188 28.433594 C 22.3125 28.523438 22.195312 28.640625 22.109375 28.691406 C 21.957031 28.792969 21.398438 28.796875 11.832031 28.796875 L 1.707031 28.796875 L 1.542969 28.675781 C 1.453125 28.609375 1.332031 28.464844 1.273438 28.351562 C 1.179688 28.164062 1.171875 27.433594 1.183594 14.929688 L 1.203125 1.703125 L 1.324219 1.539062 C 1.59375 1.171875 1.59375 1.171875 4.355469 1.171875 L 6.855469 1.171875 Z M 15.644531 2.429688 C 15.644531 3.449219 15.628906 3.730469 15.558594 3.867188 C 15.371094 4.222656 15.441406 4.21875 11.835938 4.21875 C 8.234375 4.21875 8.304688 4.222656 8.117188 3.867188 C 8.046875 3.730469 8.027344 3.449219 8.027344 2.429688 L 8.027344 1.171875 L 15.644531 1.171875 Z M 22.027344 1.277344 C 22.136719 1.328125 22.285156 1.453125 22.347656 1.539062 C 22.472656 1.703125 22.472656 1.75 22.488281 6.753906 L 22.5 11.804688 L 21.328125 12.976562 L 21.328125 2.683594 L 21.160156 2.511719 L 20.988281 2.34375 L 16.816406 2.34375 L 16.816406 1.171875 L 19.324219 1.171875 C 21.59375 1.171875 21.84375 1.183594 22.027344 1.277344 Z M 28.277344 8.675781 C 28.917969 8.980469 28.964844 9.761719 28.378906 10.324219 L 28.207031 10.488281 L 27.550781 9.824219 L 26.894531 9.164062 L 27.140625 8.921875 C 27.546875 8.53125 27.84375 8.464844 28.277344 8.675781 Z M 26.707031 10.679688 L 27.363281 11.335938 L 22.089844 16.609375 L 20.742188 15.261719 L 23.363281 12.644531 C 24.808594 11.195312 26 10.019531 26.015625 10.019531 C 26.035156 10.019531 26.34375 10.316406 26.707031 10.679688 Z M 20.585938 16.804688 L 21.042969 17.265625 L 20.234375 17.625 C 19.789062 17.824219 19.40625 17.988281 19.382812 17.988281 C 19.34375 17.988281 20.050781 16.351562 20.097656 16.347656 C 20.117188 16.347656 20.339844 16.550781 20.585938 16.804688 Z M 20.585938 16.804688 "/>
<path style=" stroke:none;fill-rule:nonzero;fill:rgb(0%,0%,0%);fill-opacity:1;" d="M 5.457031 7.113281 C 5.167969 7.269531 5.164062 7.328125 5.15625 9.480469 C 5.15625 11.660156 5.167969 11.742188 5.480469 11.882812 C 5.71875 11.992188 9.5625 11.980469 9.78125 11.871094 C 10.066406 11.71875 10.078125 11.628906 10.078125 9.492188 C 10.078125 7.351562 10.066406 7.265625 9.78125 7.113281 C 9.550781 6.996094 5.667969 6.996094 5.457031 7.113281 Z M 8.90625 9.492188 L 8.90625 10.78125 L 6.328125 10.78125 L 6.328125 8.203125 L 8.90625 8.203125 Z M 8.90625 9.492188 "/>
<path style=" stroke:none;fill-rule:nonzero;fill:rgb(0%,0%,0%);fill-opacity:1;" d="M 16.613281 7.597656 C 16.546875 7.617188 15.960938 8.15625 15.3125 8.804688 L 14.128906 9.984375 L 13.613281 9.484375 C 13.332031 9.210938 13.027344 8.964844 12.9375 8.941406 C 12.691406 8.882812 12.375 9.039062 12.28125 9.269531 C 12.128906 9.625 12.207031 9.753906 13.03125 10.582031 C 13.816406 11.367188 13.933594 11.441406 14.269531 11.355469 C 14.503906 11.296875 17.261719 8.535156 17.316406 8.300781 C 17.414062 7.910156 17.011719 7.511719 16.613281 7.597656 Z M 16.613281 7.597656 "/>
<path style=" stroke:none;fill-rule:nonzero;fill:rgb(0%,0%,0%);fill-opacity:1;" d="M 5.457031 13.558594 C 5.167969 13.714844 5.164062 13.773438 5.15625 15.925781 C 5.15625 18.105469 5.167969 18.1875 5.480469 18.328125 C 5.71875 18.4375 9.5625 18.425781 9.78125 18.316406 C 10.066406 18.164062 10.078125 18.074219 10.078125 15.9375 C 10.078125 13.796875 10.066406 13.710938 9.78125 13.558594 C 9.550781 13.441406 5.667969 13.441406 5.457031 13.558594 Z M 8.90625 15.9375 L 8.90625 17.226562 L 6.328125 17.226562 L 6.328125 14.648438 L 8.90625 14.648438 Z M 8.90625 15.9375 "/>
<path style=" stroke:none;fill-rule:nonzero;fill:rgb(0%,0%,0%);fill-opacity:1;" d="M 16.613281 14.042969 C 16.546875 14.0625 15.960938 14.601562 15.3125 15.25 L 14.128906 16.429688 L 13.613281 15.929688 C 13.332031 15.65625 13.027344 15.410156 12.9375 15.386719 C 12.691406 15.328125 12.375 15.484375 12.28125 15.714844 C 12.128906 16.070312 12.207031 16.199219 13.03125 17.027344 C 13.816406 17.8125 13.933594 17.886719 14.269531 17.800781 C 14.503906 17.742188 17.261719 14.980469 17.316406 14.746094 C 17.414062 14.355469 17.011719 13.957031 16.613281 14.042969 Z M 16.613281 14.042969 "/>
<path style=" stroke:none;fill-rule:nonzero;fill:rgb(0%,0%,0%);fill-opacity:1;" d="M 5.457031 20.003906 C 5.167969 20.160156 5.164062 20.21875 5.15625 22.371094 C 5.15625 24.550781 5.167969 24.632812 5.480469 24.773438 C 5.71875 24.882812 9.5625 24.871094 9.78125 24.761719 C 10.066406 24.609375 10.078125 24.519531 10.078125 22.382812 C 10.078125 20.242188 10.066406 20.15625 9.78125 20.003906 C 9.550781 19.886719 5.667969 19.886719 5.457031 20.003906 Z M 8.90625 22.382812 L 8.90625 23.671875 L 6.328125 23.671875 L 6.328125 21.09375 L 8.90625 21.09375 Z M 8.90625 22.382812 "/>
<path style=" stroke:none;fill-rule:nonzero;fill:rgb(0%,0%,0%);fill-opacity:1;" d="M 13.273438 20.511719 C 13.027344 20.582031 12.890625 20.78125 12.890625 21.082031 C 12.890625 21.316406 12.921875 21.363281 13.394531 21.855469 L 13.90625 22.382812 L 13.394531 22.910156 C 12.921875 23.40625 12.890625 23.449219 12.890625 23.6875 C 12.890625 23.886719 12.925781 23.980469 13.042969 24.097656 C 13.367188 24.425781 13.660156 24.332031 14.28125 23.71875 L 14.761719 23.238281 L 15.28125 23.742188 C 15.828125 24.261719 15.972656 24.339844 16.296875 24.234375 C 16.542969 24.152344 16.722656 23.824219 16.664062 23.570312 C 16.640625 23.476562 16.40625 23.183594 16.125 22.890625 L 15.621094 22.382812 L 16.125 21.867188 C 16.40625 21.578125 16.640625 21.285156 16.664062 21.191406 C 16.722656 20.941406 16.542969 20.613281 16.296875 20.53125 C 15.972656 20.425781 15.828125 20.5 15.28125 21.023438 L 14.761719 21.527344 L 14.28125 21.046875 C 13.777344 20.542969 13.566406 20.4375 13.273438 20.511719 Z M 13.273438 20.511719 "/>
<path style=" stroke:none;fill-rule:nonzero;fill:rgb(0%,0%,0%);fill-opacity:1;" d="M 11.550781 26.566406 C 11.027344 26.851562 11.238281 27.65625 11.835938 27.65625 C 12.03125 27.65625 12.117188 27.621094 12.253906 27.484375 C 12.722656 27.011719 12.136719 26.242188 11.550781 26.566406 Z M 11.550781 26.566406 "/>
</g>
</svg>
